<svg version="1.1" xmlns="http://www.w3.org/2000/svg" xmlns:xlink="http://www.w3.org/1999/xlink" width="349.12012" height="349.12012" viewBox="0,0,349.12012,349.12012"><defs><radialGradient cx="240" cy="180" r="174.56006" gradientUnits="userSpaceOnUse" id="color-1"><stop offset="0" stop-color="#ffffff" stop-opacity="0.26129"/><stop offset="1" stop-color="#ffffff" stop-opacity="0"/></radialGradient><radialGradient cx="240" cy="180" r="114.5" gradientUnits="userSpaceOnUse" id="color-2"><stop offset="0" stop-color="#ffffff" stop-opacity="0.24899"/><stop offset="1" stop-color="#ffffff" stop-opacity="0"/></radialGradient><radialGradient cx="240" cy="180" r="64.95045" gradientUnits="userSpaceOnUse" id="color-3"><stop offset="0" stop-color="#ffffff" stop-opacity="0.24093"/><stop offset="1" stop-color="#ffffff" stop-opacity="0"/></radialGradient><radialGradient cx="176.93694" cy="243.06306" r="51.43694" gradientUnits="userSpaceOnUse" id="color-4"><stop offset="0" stop-color="#ffffff" stop-opacity="0.09577"/><stop offset="1" stop-color="#ffffff" stop-opacity="0"/></radialGradient></defs><g transform="translate(-65.43994,-5.43994)"><g data-paper-data="{&quot;isPaintingLayer&quot;:true}" fill-rule="nonzero" stroke="none" stroke-width="0" stroke-linecap="butt" stroke-linejoin="miter" stroke-miterlimit="10" stroke-dasharray="" stroke-dashoffset="0" style="mix-blend-mode: normal"><path d="M65.43994,180c0,-96.40685 78.15321,-174.56006 174.56006,-174.56006c96.40685,0 174.56006,78.15321 174.56006,174.56006c0,96.40685 -78.15321,174.56006 -174.56006,174.56006c-96.40685,0 -174.56006,-78.15321 -174.56006,-174.56006z" fill="url(#color-1)"/><path d="M125.5,180c0,-63.2366 51.2634,-114.5 114.5,-114.5c63.2366,0 114.5,51.2634 114.5,114.5c0,63.2366 -51.2634,114.5 -114.5,114.5c-63.2366,0 -114.5,-51.2634 -114.5,-114.5z" fill="url(#color-2)"/><path d="M175.04955,180c0,-35.87114 29.07931,-64.95045 64.95045,-64.95045c35.87114,0 64.95045,29.07931 64.95045,64.95045c0,35.87114 -29.07931,64.95045 -64.95045,64.95045c-35.87114,0 -64.95045,-29.07931 -64.95045,-64.95045z" fill="url(#color-3)"/><path d="M125.5,243.06306c0,-28.40783 23.0291,-51.43694 51.43694,-51.43694c28.40783,0 51.43694,23.0291 51.43694,51.43694c0,28.40783 -23.0291,51.43694 -51.43694,51.43694c-28.40783,0 -51.43694,-23.0291 -51.43694,-51.43694z" fill="url(#color-4)"/></g></g></svg>