<svg version="1.1" xmlns="http://www.w3.org/2000/svg" xmlns:xlink="http://www.w3.org/1999/xlink" width="726.63422" height="445.47371" viewBox="0,0,726.63422,445.47371"><g transform="translate(121.05526,42.73684)"><g data-paper-data="{&quot;isPaintingLayer&quot;:true}" fill-rule="nonzero" stroke-linecap="butt" stroke-linejoin="miter" stroke-miterlimit="10" stroke-dasharray="" stroke-dashoffset="0" style="mix-blend-mode: normal"><path d="M-121.05526,402.73687v-445.47371h726.63422v445.47371z" fill-opacity="0.65625" fill="#000000" stroke="#000000" stroke-width="0"/><text transform="translate(20.07108,56.02885) scale(0.49811,0.49811)" font-size="40" xml:space="preserve" fill="#ffffff" fill-rule="nonzero" stroke="none" stroke-width="1" stroke-linecap="butt" stroke-linejoin="miter" stroke-miterlimit="10" stroke-dasharray="" stroke-dashoffset="0" font-family="Serif" font-weight="normal" text-anchor="start" style="mix-blend-mode: normal"><tspan x="0" dy="0">W - Flashlight.</tspan><tspan x="0" dy="46.150000000000006px">C - Close Front Entrance.</tspan><tspan x="0" dy="46.150000000000006px">Space - Hide.</tspan></text><g fill="#ffffff" stroke="none" stroke-width="0.5"><path d="M442.62089,293.56297c-1.153,0.23062 -1.38362,-0.92239 -1.38362,-0.92239l-0.22449,-1.23884c0,-6.25837 -0.76325,-12.27815 -1.76522,-18.44837c-1.16234,-7.60174 -2.22006,-15.21049 -4.60927,-22.55039c-1.91035,-5.8688 -4.60581,-11.26622 -7.40967,-16.74043c0,0 -0.53604,-1.04655 0.51051,-1.58258c1.04655,-0.53603 1.58258,0.51051 1.58258,0.51051c2.86012,5.58404 5.60416,11.09829 7.55276,17.0846c2.42807,7.45928 3.51489,15.18655 4.69608,22.91209c1.02159,6.29061 1.7939,12.43379 1.7939,18.81457l0.17882,0.77761c0,0 0.23061,1.153 -0.92239,1.38362z"/><path d="M431.47662,292.18347c0.83144,-0.83144 1.66288,0 1.66288,0l0.28837,0.29854c1.8114,2.26423 3.70326,4.36775 5.81241,6.36437c0.9295,0.87991 1.95494,1.65455 2.88545,2.53339c0.1733,0.16368 0.21666,0.50525 0.44953,0.55617c0.85181,0.18626 1.463,-2.37853 1.61328,-2.64177c1.5511,-2.71689 3.87709,-4.59338 4.73361,-7.61051c0,0 0.32302,-1.1306 1.45362,-0.80758c1.1306,0.32302 0.80757,1.45363 0.80757,1.45363c-0.2912,1.01336 -0.57918,2.2667 -1.16514,3.15921c-1.12605,1.71512 -2.73122,3.12469 -3.78019,4.95855c-0.34488,0.60293 -0.90129,2.52773 -1.44788,2.9186c-0.74144,0.53021 -1.67407,0.92839 -2.58486,0.89225c-0.38124,-0.01513 -2.47408,-1.79843 -2.80514,-2.08911c-2.86851,-2.51869 -5.42846,-5.24293 -7.80862,-8.21812l-0.11491,-0.10474c0,0 -0.83144,-0.83144 0,-1.66289z"/></g><text transform="translate(337.64685,192.40778) scale(0.33331,0.33331)" font-size="40" xml:space="preserve" fill="#ffffff" fill-rule="nonzero" stroke="none" stroke-width="1" stroke-linecap="butt" stroke-linejoin="miter" stroke-miterlimit="10" stroke-dasharray="" stroke-dashoffset="0" font-family="Serif" font-weight="normal" text-anchor="start" style="mix-blend-mode: normal"><tspan x="0" dy="0">Complete tasks to avoid</tspan><tspan x="0" dy="46.150000000000006px">insanity and to progress</tspan><tspan x="0" dy="46.150000000000006px">hours.</tspan></text><text transform="translate(146.20604,241.00635) scale(0.34007,0.34007)" font-size="40" xml:space="preserve" fill="#ffffff" fill-rule="nonzero" stroke="none" stroke-width="1" stroke-linecap="butt" stroke-linejoin="miter" stroke-miterlimit="10" stroke-dasharray="" stroke-dashoffset="0" font-family="Serif" font-weight="normal" text-anchor="start" style="mix-blend-mode: normal"><tspan x="0" dy="0">Insanity may cause the hallucinations</tspan><tspan x="0" dy="46.150000000000006px">to appear more frequently, it cant go down and</tspan><tspan x="0" dy="46.150000000000006px">will slowly increase the more hours survived.</tspan></text><path d="M132.25976,352.09047c0.74073,0.18397 1.85672,0.7383 1.85672,2.40861c0,2.5 -2.5,2.5 -2.5,2.5l-2.24793,-0.73221c-3.7472,-3.75453 -7.61094,-7.16889 -11.1395,-11.14488c-2.55528,-2.87929 -5.32258,-4.00354 -3.82287,-8.83033c0.27165,-0.87428 4.48413,-3.91625 5.45898,-4.78382c3.87678,-3.45014 7.023,-7.15298 10.27934,-11.22353c0,0 1.56173,-1.95217 3.51391,-0.39043c1.95218,1.56173 0.39043,3.51391 0.39043,3.51391c-3.42175,4.27707 -6.76762,8.20189 -10.84908,11.8257c-1.26081,1.11944 -3.31713,1.43031 -4.14486,2.89921c-0.76345,1.35482 1.83725,2.51918 2.89979,3.65469c3.34305,3.57265 6.8363,6.86424 10.30508,10.30309z" fill="#ffffff" stroke="none" stroke-width="0.5"/><path d="M105.84378,352.41345c-2.23607,1.11804 -3.35411,-1.11803 -3.35411,-1.11803l-0.67648,-1.47707c-2.45239,-3.09181 -6.91751,-9.04703 -5.7107,-13.36911c0.25253,-0.9044 3.51452,-3.79385 4.35948,-4.74588c3.18407,-3.58756 6.43539,-6.90187 8.81584,-11.09766c0,0 1.24035,-2.1706 3.41096,-0.93026c2.17061,1.24034 0.93026,3.41096 0.93026,3.41096c-2.58742,4.49944 -6.00247,8.09966 -9.43143,11.95158c-0.98306,1.10432 -2.81366,1.54939 -3.32362,2.93714c-0.16409,0.44652 0.27897,0.91252 0.47692,1.3451c1.22937,2.68657 2.52361,5.08174 4.37663,7.37466l1.24429,2.36449c0,0 1.11804,2.23606 -1.11803,3.3541z" fill="#ffffff" stroke="none" stroke-width="0.5"/><path d="M369.46455,352.90552c-1.76777,-1.76777 0,-3.53553 0,-3.53553l1.20217,-1.16454c1.49324,-2.00688 2.85163,-4.11068 4.27042,-6.17087c1.14367,-1.66068 3.03325,-3.01786 3.4053,-4.99963c0.29446,-1.56847 -4.02873,-3.95201 -4.83031,-4.5933c-4.02618,-3.22106 -6.97527,-6.53729 -10.39082,-10.3753c0,0 -1.6609,-1.86853 0.20763,-3.52943c1.86853,-1.6609 3.52943,0.20763 3.52943,0.20763c1.64516,1.85289 3.0181,3.94687 4.75649,5.71258c3.63135,3.68843 11.99706,6.78413 11.71501,12.93226c-0.06687,1.45756 -1.06854,2.72661 -1.7925,3.99343c-1.93754,3.3904 -4.52536,6.6665 -6.85828,9.80605l-1.67901,1.71665c0,0 -1.76777,1.76777 -3.53553,0z" fill="#ffffff" stroke="none" stroke-width="0.5"/><path d="M391.75946,350.68898c-1.95218,-1.56172 -0.39046,-3.51391 -0.39046,-3.51391l1.71291,-2.09794c0.84943,-2.2008 2.24516,-4.69324 2.5452,-7.04591c0.21609,-1.69441 -0.68615,-2.32173 -1.76779,-3.47348c-3.21935,-3.42802 -6.77199,-5.85619 -10.32839,-8.89277c0,0 -1.89815,-1.62697 -0.27118,-3.52512c1.62697,-1.89815 3.52512,-0.27118 3.52512,-0.27118c4.81955,4.14856 14.20141,8.98824 13.83424,16.44527c-0.14786,3.00291 -2.08386,6.52086 -3.21717,9.28059l-2.12857,2.70398c0,0 -1.56172,1.95218 -3.51391,0.39046z" fill="#ffffff" stroke="none" stroke-width="0.5"/><g fill="#ffffff" stroke="none" stroke-width="0.5"><path d="M253.69075,303.98367c-1.68716,-0.33743 -1.34973,-2.02459 -1.34973,-2.02459l0.51859,-2.55023c-0.01524,-3.6491 -0.53853,-7.07677 -0.552,-10.70296c0,0 0,-1.72057 1.72057,-1.72057c1.72057,0 1.72057,1.72057 1.72057,1.72057c-0.0157,3.71504 0.54868,7.28345 0.53525,11.04204l-0.56866,2.88602c0,0 -0.33743,1.68716 -2.02459,1.34973z"/><path d="M245.53734,303.12515c1.34354,-1.07484 2.41838,0.2687 2.41838,0.2687l1.20904,1.51231c0.93935,1.31572 2.0108,2.53337 2.95694,3.84422c0.55448,0.76822 0.97661,1.62636 1.53038,2.39509c0.13568,0.18835 0.30148,0.52126 0.52476,0.4578c0.9636,-0.27389 1.48905,-1.3416 2.26438,-1.97596c2.36695,-1.93659 4.71281,-3.95899 6.47453,-6.45374c0,0 1.00006,-1.40009 2.40015,-0.40003c1.40009,1.00006 0.40003,2.40015 0.40003,2.40015c-2.21897,3.07669 -5.41947,6.25999 -8.64623,8.35545c-0.85952,0.55817 -1.65476,1.47335 -2.67901,1.50862c-2.89052,0.09952 -3.69442,-2.4377 -5.0263,-4.22856c-0.96056,-1.29158 -2.00844,-2.51778 -2.94428,-3.82738l-1.15146,-1.4383c0,0 -1.07484,-1.34354 0.2687,-2.41838z"/></g><text transform="translate(97.50578,164.30722) scale(0.65424,0.65424)" font-size="40" xml:space="preserve" fill="#ffffff" fill-rule="nonzero" stroke="none" stroke-width="1" stroke-linecap="butt" stroke-linejoin="miter" stroke-miterlimit="10" stroke-dasharray="" stroke-dashoffset="0" font-family="Serif" font-weight="normal" text-anchor="start" style="mix-blend-mode: normal"><tspan x="0" dy="0">click anywhere to proceed.</tspan></text><text transform="translate(143.69516,52.55151) scale(0.29459,0.29459)" font-size="40" xml:space="preserve" fill-opacity="0.51109" fill="#ffffff" fill-rule="nonzero" stroke="none" stroke-width="1" stroke-linecap="butt" stroke-linejoin="miter" stroke-miterlimit="10" stroke-dasharray="" stroke-dashoffset="0" font-family="Serif" font-weight="normal" text-anchor="start" style="mix-blend-mode: normal"><tspan x="0" dy="0">*you cannot click anything when the flashlight is on</tspan></text></g></g></svg>